<mxfile host="app.diagrams.net" modified="2022-06-15T11:41:44.529Z" agent="5.0 (Windows NT 10.0; Win64; x64) AppleWebKit/537.36 (KHTML, like Gecko) Chrome/102.0.5005.63 Safari/537.36 Edg/102.0.1245.33" etag="Y0dNRb6wSgY4jFeJvIOW" version="19.0.2" type="github" pages="2">
  <diagram id="80JNsqIN1oj9mV-6OZXV" name="Page-1">
    <mxGraphModel dx="1422" dy="1963" grid="1" gridSize="10" guides="1" tooltips="1" connect="1" arrows="1" fold="1" page="1" pageScale="1" pageWidth="827" pageHeight="1169" math="0" shadow="0">
      <root>
        <mxCell id="0" />
        <mxCell id="1" parent="0" />
        <mxCell id="rWYEtE2VRpkPc-ZGuE_r-2" value="Sensor data" style="rounded=1;whiteSpace=wrap;html=1;" parent="1" vertex="1">
          <mxGeometry x="80" y="40" width="120" height="60" as="geometry" />
        </mxCell>
        <mxCell id="rWYEtE2VRpkPc-ZGuE_r-3" value="Location : time&lt;br&gt;Станция 1 : 15:02:14" style="rounded=1;whiteSpace=wrap;html=1;" parent="1" vertex="1">
          <mxGeometry x="80" y="140" width="120" height="60" as="geometry" />
        </mxCell>
        <mxCell id="rWYEtE2VRpkPc-ZGuE_r-4" value="Weight : time&lt;br&gt;55т : 15:15:03" style="rounded=1;whiteSpace=wrap;html=1;" parent="1" vertex="1">
          <mxGeometry x="80" y="270" width="120" height="60" as="geometry" />
        </mxCell>
        <mxCell id="rWYEtE2VRpkPc-ZGuE_r-5" value="Exploited hours : time" style="rounded=1;whiteSpace=wrap;html=1;" parent="1" vertex="1">
          <mxGeometry x="80" y="350" width="120" height="60" as="geometry" />
        </mxCell>
        <mxCell id="rWYEtE2VRpkPc-ZGuE_r-6" value="Mileage : time" style="rounded=1;whiteSpace=wrap;html=1;" parent="1" vertex="1">
          <mxGeometry x="80" y="430" width="120" height="60" as="geometry" />
        </mxCell>
        <mxCell id="rWYEtE2VRpkPc-ZGuE_r-7" value="Temperature : time" style="rounded=1;whiteSpace=wrap;html=1;" parent="1" vertex="1">
          <mxGeometry x="80" y="510" width="120" height="60" as="geometry" />
        </mxCell>
        <mxCell id="rWYEtE2VRpkPc-ZGuE_r-8" value="Equipment Sensor Data Log" style="rounded=1;whiteSpace=wrap;html=1;" parent="1" vertex="1">
          <mxGeometry x="280" y="40" width="120" height="60" as="geometry" />
        </mxCell>
        <mxCell id="rWYEtE2VRpkPc-ZGuE_r-9" value="" style="html=1;shadow=0;dashed=0;align=center;verticalAlign=middle;shape=mxgraph.arrows2.arrow;dy=0.6;dx=40;notch=0;" parent="1" vertex="1">
          <mxGeometry x="210" y="60" width="60" height="30" as="geometry" />
        </mxCell>
        <mxCell id="rWYEtE2VRpkPc-ZGuE_r-10" value="Станция 1 : 15:02:14&lt;br&gt;Станция 8 : 15:14:18&lt;br&gt;Станция 5 : 15:46:52" style="rounded=1;whiteSpace=wrap;html=1;" parent="1" vertex="1">
          <mxGeometry x="280" y="140" width="120" height="120" as="geometry" />
        </mxCell>
        <mxCell id="rWYEtE2VRpkPc-ZGuE_r-11" value="Rules" style="rounded=1;whiteSpace=wrap;html=1;" parent="1" vertex="1">
          <mxGeometry x="690" y="40" width="180" height="60" as="geometry" />
        </mxCell>
        <mxCell id="rWYEtE2VRpkPc-ZGuE_r-12" value="тип станции == &quot;разгрузка&quot;&lt;br&gt;&amp;amp;&amp;amp;&lt;br&gt;(GrossWeight - NetWeight) &amp;gt; 0" style="rounded=1;whiteSpace=wrap;html=1;" parent="1" vertex="1">
          <mxGeometry x="690" y="140" width="180" height="120" as="geometry" />
        </mxCell>
        <mxCell id="rWYEtE2VRpkPc-ZGuE_r-13" value="Business Operations" style="rounded=1;whiteSpace=wrap;html=1;" parent="1" vertex="1">
          <mxGeometry x="940" y="40" width="230" height="60" as="geometry" />
        </mxCell>
        <mxCell id="rWYEtE2VRpkPc-ZGuE_r-14" value="Inventory document on coal on weight = (GrossWeight - NetWeight)" style="rounded=1;whiteSpace=wrap;html=1;" parent="1" vertex="1">
          <mxGeometry x="940" y="140" width="230" height="120" as="geometry" />
        </mxCell>
        <mxCell id="rWYEtE2VRpkPc-ZGuE_r-15" value="Equipment Shift Data Log" style="rounded=1;whiteSpace=wrap;html=1;" parent="1" vertex="1">
          <mxGeometry x="440" y="40" width="180" height="60" as="geometry" />
        </mxCell>
        <mxCell id="rWYEtE2VRpkPc-ZGuE_r-16" value="Mileage = 158 км : 18.05.2022" style="rounded=1;whiteSpace=wrap;html=1;" parent="1" vertex="1">
          <mxGeometry x="440" y="140" width="180" height="120" as="geometry" />
        </mxCell>
        <mxCell id="rWYEtE2VRpkPc-ZGuE_r-17" value="Who?" style="rounded=1;whiteSpace=wrap;html=1;" parent="1" vertex="1">
          <mxGeometry x="280" y="-50" width="120" height="60" as="geometry" />
        </mxCell>
      </root>
    </mxGraphModel>
  </diagram>
  <diagram id="Om5zHNZ3S2E0QpQS4rUD" name="Пробеги">
    <mxGraphModel dx="2858" dy="1134" grid="1" gridSize="10" guides="1" tooltips="1" connect="1" arrows="1" fold="1" page="1" pageScale="1" pageWidth="827" pageHeight="1169" math="0" shadow="0">
      <root>
        <mxCell id="0" />
        <mxCell id="1" parent="0" />
        <mxCell id="Z_x_-_7z4lIZp34NYtSl-1" value="Трекинг вагонов / &#xa;Журнал локаций вагонов" style="swimlane;childLayout=stackLayout;horizontal=1;startSize=40;horizontalStack=0;rounded=1;fontSize=14;fontStyle=0;strokeWidth=2;resizeParent=0;resizeLast=1;shadow=0;dashed=0;align=center;" vertex="1" parent="1">
          <mxGeometry x="70" y="10" width="190" height="120" as="geometry" />
        </mxCell>
        <mxCell id="Z_x_-_7z4lIZp34NYtSl-2" value="+CarriageId&#xa;+LocationId&#xa;+Time" style="align=left;strokeColor=none;fillColor=none;spacingLeft=4;fontSize=12;verticalAlign=top;resizable=0;rotatable=0;part=1;" vertex="1" parent="Z_x_-_7z4lIZp34NYtSl-1">
          <mxGeometry y="40" width="190" height="80" as="geometry" />
        </mxCell>
        <mxCell id="Z_x_-_7z4lIZp34NYtSl-3" value="Журнал учета перевозки груза" style="swimlane;childLayout=stackLayout;horizontal=1;startSize=40;horizontalStack=0;rounded=1;fontSize=14;fontStyle=0;strokeWidth=2;resizeParent=0;resizeLast=1;shadow=0;dashed=0;align=center;" vertex="1" parent="1">
          <mxGeometry x="360" y="10" width="210" height="180" as="geometry" />
        </mxCell>
        <mxCell id="Z_x_-_7z4lIZp34NYtSl-4" value="+Дата/время загрузки&#xa;+Location/весовая загрузки&#xa;+Весовщик загрузки&#xa;+Состав (поезд)&#xa;+Дата:время выгрузки&#xa;+LocationId выгрузки&#xa;+Весовщик разгрузки&#xa;+Вес груза&#xa;+Вагон&#xa;" style="align=left;strokeColor=none;fillColor=none;spacingLeft=4;fontSize=12;verticalAlign=top;resizable=0;rotatable=0;part=1;" vertex="1" parent="Z_x_-_7z4lIZp34NYtSl-3">
          <mxGeometry y="40" width="210" height="140" as="geometry" />
        </mxCell>
        <mxCell id="Z_x_-_7z4lIZp34NYtSl-9" value="Оборудование / ОС Показатели&#xa;EquipmentReadings" style="swimlane;childLayout=stackLayout;horizontal=1;startSize=50;horizontalStack=0;rounded=1;fontSize=14;fontStyle=0;strokeWidth=2;resizeParent=0;resizeLast=1;shadow=0;dashed=0;align=center;" vertex="1" parent="1">
          <mxGeometry x="80" y="260" width="210" height="120" as="geometry" />
        </mxCell>
        <mxCell id="Z_x_-_7z4lIZp34NYtSl-10" value="+Единица оборудования&#xa;+Тип показателя: &quot;Пробег&quot;&#xa;+Величина показателя - пробега&#xa;+Дата:время" style="align=left;strokeColor=none;fillColor=none;spacingLeft=4;fontSize=12;verticalAlign=top;resizable=0;rotatable=0;part=1;" vertex="1" parent="Z_x_-_7z4lIZp34NYtSl-9">
          <mxGeometry y="50" width="210" height="70" as="geometry" />
        </mxCell>
        <mxCell id="Z_x_-_7z4lIZp34NYtSl-13" value="Журнал проведенного &#xa;обслуживания" style="swimlane;childLayout=stackLayout;horizontal=1;startSize=40;horizontalStack=0;rounded=1;fontSize=14;fontStyle=0;strokeWidth=2;resizeParent=0;resizeLast=1;shadow=0;dashed=0;align=center;" vertex="1" parent="1">
          <mxGeometry x="770" y="120" width="200" height="120" as="geometry" />
        </mxCell>
        <mxCell id="Z_x_-_7z4lIZp34NYtSl-14" value="+Тип обслуживания&#xa;+Дата:время&#xa;+Наряд-задание" style="align=left;strokeColor=none;fillColor=none;spacingLeft=4;fontSize=12;verticalAlign=top;resizable=0;rotatable=0;part=1;" vertex="1" parent="Z_x_-_7z4lIZp34NYtSl-13">
          <mxGeometry y="40" width="200" height="80" as="geometry" />
        </mxCell>
        <mxCell id="Z_x_-_7z4lIZp34NYtSl-23" value="" style="edgeStyle=orthogonalEdgeStyle;rounded=0;orthogonalLoop=1;jettySize=auto;html=1;" edge="1" parent="1" source="Z_x_-_7z4lIZp34NYtSl-17" target="Z_x_-_7z4lIZp34NYtSl-22">
          <mxGeometry relative="1" as="geometry" />
        </mxCell>
        <mxCell id="ZQdvw8Mw5SdcorRhIYN5-41" value="" style="edgeStyle=orthogonalEdgeStyle;rounded=0;orthogonalLoop=1;jettySize=auto;html=1;entryX=0;entryY=0.5;entryDx=0;entryDy=0;" edge="1" parent="1" source="Z_x_-_7z4lIZp34NYtSl-17" target="ZQdvw8Mw5SdcorRhIYN5-42">
          <mxGeometry relative="1" as="geometry">
            <mxPoint x="705" y="695" as="targetPoint" />
            <Array as="points">
              <mxPoint x="1210" y="765" />
              <mxPoint x="1210" y="515" />
            </Array>
          </mxGeometry>
        </mxCell>
        <mxCell id="Z_x_-_7z4lIZp34NYtSl-17" value="Определение величины пробега" style="rounded=1;arcSize=10;whiteSpace=wrap;html=1;align=center;fillColor=#d5e8d4;gradientColor=#97d077;strokeColor=#82b366;" vertex="1" parent="1">
          <mxGeometry x="505" y="740" width="120" height="50" as="geometry" />
        </mxCell>
        <mxCell id="Z_x_-_7z4lIZp34NYtSl-20" value="" style="edgeStyle=orthogonalEdgeStyle;rounded=0;orthogonalLoop=1;jettySize=auto;html=1;" edge="1" parent="1" source="Z_x_-_7z4lIZp34NYtSl-18" target="Z_x_-_7z4lIZp34NYtSl-19">
          <mxGeometry relative="1" as="geometry" />
        </mxCell>
        <mxCell id="Z_x_-_7z4lIZp34NYtSl-18" value="Считывание метки на вагоне" style="ellipse;fillColor=#ffffff;strokeColor=#000000;align=left;spacingTop=0;spacing=39;" vertex="1" parent="1">
          <mxGeometry x="550" y="430" width="30" height="30" as="geometry" />
        </mxCell>
        <mxCell id="Z_x_-_7z4lIZp34NYtSl-21" style="edgeStyle=orthogonalEdgeStyle;rounded=0;orthogonalLoop=1;jettySize=auto;html=1;exitX=0.5;exitY=1;exitDx=0;exitDy=0;entryX=0.5;entryY=0;entryDx=0;entryDy=0;" edge="1" parent="1" source="ZQdvw8Mw5SdcorRhIYN5-3" target="ZQdvw8Mw5SdcorRhIYN5-20">
          <mxGeometry relative="1" as="geometry" />
        </mxCell>
        <mxCell id="ZQdvw8Mw5SdcorRhIYN5-4" value="" style="edgeStyle=orthogonalEdgeStyle;rounded=0;orthogonalLoop=1;jettySize=auto;html=1;entryX=0.5;entryY=0;entryDx=0;entryDy=0;" edge="1" parent="1" source="Z_x_-_7z4lIZp34NYtSl-19" target="ZQdvw8Mw5SdcorRhIYN5-3">
          <mxGeometry relative="1" as="geometry" />
        </mxCell>
        <mxCell id="Z_x_-_7z4lIZp34NYtSl-19" value="Определение оборудования&lt;br&gt;&amp;nbsp;(метка - ОС)" style="whiteSpace=wrap;html=1;align=center;fillColor=#e6d0de;strokeColor=#996185;spacingTop=0;spacing=0;gradientColor=#d5739d;" vertex="1" parent="1">
          <mxGeometry x="482.5" y="475" width="165" height="60" as="geometry" />
        </mxCell>
        <mxCell id="Z_x_-_7z4lIZp34NYtSl-25" value="" style="edgeStyle=orthogonalEdgeStyle;rounded=0;orthogonalLoop=1;jettySize=auto;html=1;" edge="1" parent="1" source="Z_x_-_7z4lIZp34NYtSl-22" target="Z_x_-_7z4lIZp34NYtSl-24">
          <mxGeometry relative="1" as="geometry" />
        </mxCell>
        <mxCell id="ZQdvw8Mw5SdcorRhIYN5-39" value="" style="edgeStyle=orthogonalEdgeStyle;rounded=0;orthogonalLoop=1;jettySize=auto;html=1;" edge="1" parent="1" source="Z_x_-_7z4lIZp34NYtSl-22" target="ZQdvw8Mw5SdcorRhIYN5-38">
          <mxGeometry relative="1" as="geometry" />
        </mxCell>
        <mxCell id="Z_x_-_7z4lIZp34NYtSl-22" value="Регистрация пробега в журнале показателей оборудования" style="whiteSpace=wrap;html=1;rounded=1;arcSize=10;fillColor=#dae8fc;strokeColor=#6c8ebf;gradientColor=#7ea6e0;" vertex="1" parent="1">
          <mxGeometry x="504.5" y="815.5" width="120" height="60" as="geometry" />
        </mxCell>
        <mxCell id="Z_x_-_7z4lIZp34NYtSl-30" value="" style="edgeStyle=orthogonalEdgeStyle;rounded=0;orthogonalLoop=1;jettySize=auto;html=1;" edge="1" parent="1" source="Z_x_-_7z4lIZp34NYtSl-24" target="Z_x_-_7z4lIZp34NYtSl-29">
          <mxGeometry relative="1" as="geometry" />
        </mxCell>
        <mxCell id="Z_x_-_7z4lIZp34NYtSl-24" value="Проверка на наличия правил для этого класса оборудования" style="whiteSpace=wrap;html=1;rounded=1;arcSize=10;fillColor=#dae8fc;gradientColor=#7ea6e0;strokeColor=#6c8ebf;" vertex="1" parent="1">
          <mxGeometry x="504.5" y="895.5" width="120" height="60" as="geometry" />
        </mxCell>
        <mxCell id="Z_x_-_7z4lIZp34NYtSl-32" value="Есть" style="edgeStyle=orthogonalEdgeStyle;rounded=0;orthogonalLoop=1;jettySize=auto;html=1;entryX=0;entryY=0.5;entryDx=0;entryDy=0;" edge="1" parent="1" source="Z_x_-_7z4lIZp34NYtSl-29" target="ZQdvw8Mw5SdcorRhIYN5-69">
          <mxGeometry relative="1" as="geometry" />
        </mxCell>
        <mxCell id="Z_x_-_7z4lIZp34NYtSl-38" style="edgeStyle=orthogonalEdgeStyle;rounded=0;orthogonalLoop=1;jettySize=auto;html=1;exitX=0.5;exitY=1;exitDx=0;exitDy=0;entryX=0.5;entryY=0;entryDx=0;entryDy=0;" edge="1" parent="1" source="Z_x_-_7z4lIZp34NYtSl-29" target="Z_x_-_7z4lIZp34NYtSl-37">
          <mxGeometry relative="1" as="geometry" />
        </mxCell>
        <mxCell id="Z_x_-_7z4lIZp34NYtSl-29" value="" style="rhombus;whiteSpace=wrap;html=1;rounded=1;arcSize=10;" vertex="1" parent="1">
          <mxGeometry x="552" y="985.5" width="25" height="30" as="geometry" />
        </mxCell>
        <mxCell id="Z_x_-_7z4lIZp34NYtSl-39" style="edgeStyle=orthogonalEdgeStyle;rounded=0;orthogonalLoop=1;jettySize=auto;html=1;exitX=0.5;exitY=1;exitDx=0;exitDy=0;entryX=1;entryY=0.5;entryDx=0;entryDy=0;" edge="1" parent="1" source="ZQdvw8Mw5SdcorRhIYN5-66" target="Z_x_-_7z4lIZp34NYtSl-37">
          <mxGeometry relative="1" as="geometry">
            <mxPoint x="790.25" y="1510.0000000000005" as="sourcePoint" />
          </mxGeometry>
        </mxCell>
        <mxCell id="Z_x_-_7z4lIZp34NYtSl-33" value="Правила формирования&#xa;наряд-заданий &#xa;на обслуживание" style="swimlane;childLayout=stackLayout;horizontal=1;startSize=60;horizontalStack=0;rounded=1;fontSize=14;fontStyle=0;strokeWidth=2;resizeParent=0;resizeLast=1;shadow=0;dashed=0;align=center;" vertex="1" parent="1">
          <mxGeometry x="770" y="260" width="200" height="120" as="geometry" />
        </mxCell>
        <mxCell id="Z_x_-_7z4lIZp34NYtSl-34" value="+Тип обслуживания&#xa;+Дата:времмя&#xa;+Наряд-задание" style="align=left;strokeColor=none;fillColor=none;spacingLeft=4;fontSize=12;verticalAlign=top;resizable=0;rotatable=0;part=1;" vertex="1" parent="Z_x_-_7z4lIZp34NYtSl-33">
          <mxGeometry y="60" width="200" height="60" as="geometry" />
        </mxCell>
        <mxCell id="Z_x_-_7z4lIZp34NYtSl-35" value="Типы обслуживания" style="swimlane;childLayout=stackLayout;horizontal=1;startSize=40;horizontalStack=0;rounded=1;fontSize=14;fontStyle=0;strokeWidth=2;resizeParent=0;resizeLast=1;shadow=0;dashed=0;align=center;" vertex="1" parent="1">
          <mxGeometry x="770" y="400" width="200" height="120" as="geometry" />
        </mxCell>
        <mxCell id="Z_x_-_7z4lIZp34NYtSl-36" value="+Тип обслуживания&#xa;+Дата:время&#xa;+Наряд-задание" style="align=left;strokeColor=none;fillColor=none;spacingLeft=4;fontSize=12;verticalAlign=top;resizable=0;rotatable=0;part=1;" vertex="1" parent="Z_x_-_7z4lIZp34NYtSl-35">
          <mxGeometry y="40" width="200" height="80" as="geometry" />
        </mxCell>
        <mxCell id="Z_x_-_7z4lIZp34NYtSl-37" value="" style="ellipse;fillColor=#000000;strokeColor=none;" vertex="1" parent="1">
          <mxGeometry x="560" y="1480" width="30" height="30" as="geometry" />
        </mxCell>
        <mxCell id="Z_x_-_7z4lIZp34NYtSl-42" value="" style="edgeStyle=orthogonalEdgeStyle;rounded=0;orthogonalLoop=1;jettySize=auto;html=1;" edge="1" parent="1" source="Z_x_-_7z4lIZp34NYtSl-40" target="Z_x_-_7z4lIZp34NYtSl-41">
          <mxGeometry relative="1" as="geometry" />
        </mxCell>
        <mxCell id="ZQdvw8Mw5SdcorRhIYN5-10" value="" style="edgeStyle=orthogonalEdgeStyle;rounded=0;orthogonalLoop=1;jettySize=auto;html=1;" edge="1" parent="1" source="Z_x_-_7z4lIZp34NYtSl-40" target="ZQdvw8Mw5SdcorRhIYN5-9">
          <mxGeometry relative="1" as="geometry" />
        </mxCell>
        <mxCell id="Z_x_-_7z4lIZp34NYtSl-40" value="" style="ellipse;fillColor=#ffffff;strokeColor=#000000;" vertex="1" parent="1">
          <mxGeometry x="162.5" y="430" width="30" height="30" as="geometry" />
        </mxCell>
        <mxCell id="Z_x_-_7z4lIZp34NYtSl-44" value="" style="edgeStyle=orthogonalEdgeStyle;rounded=0;orthogonalLoop=1;jettySize=auto;html=1;" edge="1" parent="1" source="Z_x_-_7z4lIZp34NYtSl-41" target="Z_x_-_7z4lIZp34NYtSl-43">
          <mxGeometry relative="1" as="geometry" />
        </mxCell>
        <mxCell id="Z_x_-_7z4lIZp34NYtSl-41" value="На весовой ввели данные по весу вагона на экранной форме" style="whiteSpace=wrap;html=1;fillColor=#ffffff;strokeColor=#000000;" vertex="1" parent="1">
          <mxGeometry x="117.5" y="610" width="120" height="60" as="geometry" />
        </mxCell>
        <mxCell id="ZQdvw8Mw5SdcorRhIYN5-7" style="edgeStyle=orthogonalEdgeStyle;rounded=0;orthogonalLoop=1;jettySize=auto;html=1;exitX=0.5;exitY=1;exitDx=0;exitDy=0;" edge="1" parent="1" source="Z_x_-_7z4lIZp34NYtSl-43" target="ZQdvw8Mw5SdcorRhIYN5-5">
          <mxGeometry relative="1" as="geometry" />
        </mxCell>
        <mxCell id="ZQdvw8Mw5SdcorRhIYN5-17" value="" style="edgeStyle=orthogonalEdgeStyle;rounded=0;orthogonalLoop=1;jettySize=auto;html=1;" edge="1" parent="1" source="Z_x_-_7z4lIZp34NYtSl-43" target="ZQdvw8Mw5SdcorRhIYN5-16">
          <mxGeometry relative="1" as="geometry" />
        </mxCell>
        <mxCell id="Z_x_-_7z4lIZp34NYtSl-43" value="Данные загрузки сохранили в Журнале учета веса вагонов&lt;br&gt;Начало маршрута - пункт загрузки" style="whiteSpace=wrap;html=1;fillColor=#ffffff;strokeColor=#000000;" vertex="1" parent="1">
          <mxGeometry x="65" y="700" width="225" height="60" as="geometry" />
        </mxCell>
        <mxCell id="ZQdvw8Mw5SdcorRhIYN5-3" value="Регистрация в журнале трекинга объектов&lt;br&gt;Tracking Registries" style="whiteSpace=wrap;html=1;fillColor=#e6d0de;strokeColor=#996185;spacingTop=0;spacing=0;gradientColor=#d5739d;" vertex="1" parent="1">
          <mxGeometry x="504.5" y="565" width="120" height="60" as="geometry" />
        </mxCell>
        <mxCell id="ZQdvw8Mw5SdcorRhIYN5-8" style="edgeStyle=orthogonalEdgeStyle;rounded=0;orthogonalLoop=1;jettySize=auto;html=1;exitX=0.5;exitY=1;exitDx=0;exitDy=0;entryX=0.5;entryY=0;entryDx=0;entryDy=0;" edge="1" parent="1" source="ZQdvw8Mw5SdcorRhIYN5-5" target="ZQdvw8Mw5SdcorRhIYN5-6">
          <mxGeometry relative="1" as="geometry" />
        </mxCell>
        <mxCell id="ZQdvw8Mw5SdcorRhIYN5-5" value="Вагон отмечен на станции разгрузки" style="whiteSpace=wrap;html=1;fillColor=#ffffff;strokeColor=#000000;" vertex="1" parent="1">
          <mxGeometry x="117.5" y="800.5" width="120" height="60" as="geometry" />
        </mxCell>
        <mxCell id="ZQdvw8Mw5SdcorRhIYN5-12" style="edgeStyle=orthogonalEdgeStyle;rounded=0;orthogonalLoop=1;jettySize=auto;html=1;exitX=0.5;exitY=1;exitDx=0;exitDy=0;entryX=0.5;entryY=0;entryDx=0;entryDy=0;" edge="1" parent="1" source="ZQdvw8Mw5SdcorRhIYN5-6" target="ZQdvw8Mw5SdcorRhIYN5-11">
          <mxGeometry relative="1" as="geometry" />
        </mxCell>
        <mxCell id="ZQdvw8Mw5SdcorRhIYN5-14" value="" style="edgeStyle=orthogonalEdgeStyle;rounded=0;orthogonalLoop=1;jettySize=auto;html=1;" edge="1" parent="1" source="ZQdvw8Mw5SdcorRhIYN5-6" target="ZQdvw8Mw5SdcorRhIYN5-13">
          <mxGeometry relative="1" as="geometry" />
        </mxCell>
        <mxCell id="ZQdvw8Mw5SdcorRhIYN5-6" value="В &lt;br&gt;Журнале учета веса вагонов отмечаем данные по разгрузке" style="whiteSpace=wrap;html=1;fillColor=#ffffff;strokeColor=#000000;" vertex="1" parent="1">
          <mxGeometry x="117.5" y="880.5" width="120" height="60" as="geometry" />
        </mxCell>
        <mxCell id="ZQdvw8Mw5SdcorRhIYN5-9" value="Вагон отмечен на станции загрузки" style="whiteSpace=wrap;html=1;fillColor=#f5f5f5;strokeColor=#666666;gradientColor=#b3b3b3;" vertex="1" parent="1">
          <mxGeometry x="117.5" y="530" width="120" height="60" as="geometry" />
        </mxCell>
        <mxCell id="ZQdvw8Mw5SdcorRhIYN5-11" value="" style="ellipse;fillColor=#000000;strokeColor=none;" vertex="1" parent="1">
          <mxGeometry x="162.5" y="1000.5" width="30" height="30" as="geometry" />
        </mxCell>
        <mxCell id="ZQdvw8Mw5SdcorRhIYN5-13" value="Если вагон не был на станции разгрузки, но был на любом пункте после пункта разгрузки, то считаем, что вагон был на пункте разгрузки и выгрузился" style="whiteSpace=wrap;html=1;fillColor=#ffffff;strokeColor=#000000;" vertex="1" parent="1">
          <mxGeometry x="-192.5" y="865.5" width="205" height="90" as="geometry" />
        </mxCell>
        <mxCell id="ZQdvw8Mw5SdcorRhIYN5-15" value="Регистрация грузов" style="shape=note2;boundedLbl=1;whiteSpace=wrap;html=1;size=25;verticalAlign=top;align=center;" vertex="1" parent="1">
          <mxGeometry x="30" y="430" width="120" height="60" as="geometry" />
        </mxCell>
        <mxCell id="ZQdvw8Mw5SdcorRhIYN5-16" value="Маршруты" style="whiteSpace=wrap;html=1;fillColor=#b0e3e6;strokeColor=#0e8088;" vertex="1" parent="1">
          <mxGeometry x="-200" y="700" width="120" height="60" as="geometry" />
        </mxCell>
        <mxCell id="ZQdvw8Mw5SdcorRhIYN5-23" style="edgeStyle=orthogonalEdgeStyle;rounded=0;orthogonalLoop=1;jettySize=auto;html=1;exitX=0.5;exitY=1;exitDx=0;exitDy=0;entryX=0.5;entryY=0;entryDx=0;entryDy=0;" edge="1" parent="1" source="ZQdvw8Mw5SdcorRhIYN5-20" target="Z_x_-_7z4lIZp34NYtSl-17">
          <mxGeometry relative="1" as="geometry" />
        </mxCell>
        <mxCell id="ZQdvw8Mw5SdcorRhIYN5-24" style="edgeStyle=orthogonalEdgeStyle;rounded=0;orthogonalLoop=1;jettySize=auto;html=1;exitX=0;exitY=0.5;exitDx=0;exitDy=0;entryX=1;entryY=0.5;entryDx=0;entryDy=0;" edge="1" parent="1" source="ZQdvw8Mw5SdcorRhIYN5-20" target="ZQdvw8Mw5SdcorRhIYN5-5">
          <mxGeometry relative="1" as="geometry" />
        </mxCell>
        <mxCell id="ZQdvw8Mw5SdcorRhIYN5-20" value="Обработчик событий появления в пункте трекинга" style="whiteSpace=wrap;html=1;fillColor=#d5e8d4;strokeColor=#82b366;spacingTop=0;spacing=0;gradientColor=#97d077;" vertex="1" parent="1">
          <mxGeometry x="505" y="650" width="120" height="60" as="geometry" />
        </mxCell>
        <mxCell id="ZQdvw8Mw5SdcorRhIYN5-33" value="" style="whiteSpace=wrap;html=1;fillColor=#ffffff;strokeColor=#000000;" vertex="1" parent="1">
          <mxGeometry x="200" y="460" width="120" height="60" as="geometry" />
        </mxCell>
        <mxCell id="ZQdvw8Mw5SdcorRhIYN5-34" value="Tracking" style="whiteSpace=wrap;html=1;rounded=1;arcSize=10;fillColor=#d5e8d4;strokeColor=#82b366;gradientColor=#97d077;" vertex="1" parent="1">
          <mxGeometry x="760" y="555" width="120" height="60" as="geometry" />
        </mxCell>
        <mxCell id="ZQdvw8Mw5SdcorRhIYN5-36" value="IoT" style="whiteSpace=wrap;html=1;rounded=1;arcSize=10;fillColor=#e6d0de;strokeColor=#996185;gradientColor=#d5739d;" vertex="1" parent="1">
          <mxGeometry x="900" y="555" width="120" height="60" as="geometry" />
        </mxCell>
        <mxCell id="ZQdvw8Mw5SdcorRhIYN5-37" value="ТОиР" style="whiteSpace=wrap;html=1;rounded=1;arcSize=10;fillColor=#dae8fc;strokeColor=#6c8ebf;gradientColor=#7ea6e0;" vertex="1" parent="1">
          <mxGeometry x="1040" y="555" width="120" height="60" as="geometry" />
        </mxCell>
        <mxCell id="ZQdvw8Mw5SdcorRhIYN5-38" value="1. В журнале показателей оборудования найти последнее предыдущее значение по этому вагону / локомотиву.&lt;br&gt;2. Добавить текущее значение пробега.&lt;br&gt;3. Заменить предыдущее" style="whiteSpace=wrap;html=1;rounded=1;arcSize=10;align=left;strokeWidth=2;" vertex="1" parent="1">
          <mxGeometry x="870" y="790.5" width="210" height="110" as="geometry" />
        </mxCell>
        <mxCell id="ZQdvw8Mw5SdcorRhIYN5-44" value="" style="edgeStyle=orthogonalEdgeStyle;rounded=0;orthogonalLoop=1;jettySize=auto;html=1;" edge="1" parent="1" source="ZQdvw8Mw5SdcorRhIYN5-42" target="ZQdvw8Mw5SdcorRhIYN5-43">
          <mxGeometry relative="1" as="geometry" />
        </mxCell>
        <mxCell id="ZQdvw8Mw5SdcorRhIYN5-42" value="" style="ellipse;fillColor=#ffffff;strokeColor=#000000;align=left;spacingTop=0;spacing=39;" vertex="1" parent="1">
          <mxGeometry x="1480" y="500" width="30" height="30" as="geometry" />
        </mxCell>
        <mxCell id="ZQdvw8Mw5SdcorRhIYN5-46" value="" style="edgeStyle=orthogonalEdgeStyle;rounded=0;orthogonalLoop=1;jettySize=auto;html=1;" edge="1" parent="1" source="ZQdvw8Mw5SdcorRhIYN5-43" target="ZQdvw8Mw5SdcorRhIYN5-45">
          <mxGeometry relative="1" as="geometry" />
        </mxCell>
        <mxCell id="ZQdvw8Mw5SdcorRhIYN5-43" value="Выбрать дистанции по маршруту" style="whiteSpace=wrap;html=1;align=center;fillColor=#ffffff;strokeColor=#000000;spacingTop=0;spacing=0;" vertex="1" parent="1">
          <mxGeometry x="1417.5" y="600" width="155" height="60" as="geometry" />
        </mxCell>
        <mxCell id="ZQdvw8Mw5SdcorRhIYN5-48" value="" style="edgeStyle=orthogonalEdgeStyle;rounded=0;orthogonalLoop=1;jettySize=auto;html=1;" edge="1" parent="1" source="ZQdvw8Mw5SdcorRhIYN5-45" target="ZQdvw8Mw5SdcorRhIYN5-47">
          <mxGeometry relative="1" as="geometry" />
        </mxCell>
        <mxCell id="ZQdvw8Mw5SdcorRhIYN5-45" value="Выбрать текущую дистацию - дистанцию, у которой локация конечного узла совпадает с текущей локацией" style="whiteSpace=wrap;html=1;fillColor=#ffffff;strokeColor=#000000;spacingTop=0;spacing=0;" vertex="1" parent="1">
          <mxGeometry x="1357.5" y="700" width="275" height="60" as="geometry" />
        </mxCell>
        <mxCell id="ZQdvw8Mw5SdcorRhIYN5-50" value="" style="edgeStyle=orthogonalEdgeStyle;rounded=0;orthogonalLoop=1;jettySize=auto;html=1;fontSize=12;" edge="1" parent="1" source="ZQdvw8Mw5SdcorRhIYN5-47" target="ZQdvw8Mw5SdcorRhIYN5-49">
          <mxGeometry relative="1" as="geometry" />
        </mxCell>
        <mxCell id="ZQdvw8Mw5SdcorRhIYN5-47" value="Найти предыдущее значение локации по Журналу трекинга&lt;br&gt;" style="whiteSpace=wrap;html=1;fillColor=#ffffff;strokeColor=#000000;spacingTop=0;spacing=0;" vertex="1" parent="1">
          <mxGeometry x="1435" y="840.5" width="120" height="60" as="geometry" />
        </mxCell>
        <mxCell id="ZQdvw8Mw5SdcorRhIYN5-52" style="edgeStyle=orthogonalEdgeStyle;rounded=0;orthogonalLoop=1;jettySize=auto;html=1;exitX=0.5;exitY=1;exitDx=0;exitDy=0;entryX=0.5;entryY=0;entryDx=0;entryDy=0;fontSize=12;" edge="1" parent="1" source="ZQdvw8Mw5SdcorRhIYN5-49" target="ZQdvw8Mw5SdcorRhIYN5-51">
          <mxGeometry relative="1" as="geometry" />
        </mxCell>
        <mxCell id="ZQdvw8Mw5SdcorRhIYN5-49" value="&lt;span style=&quot;&quot;&gt;Значение предыдущей локации соответствует локации начального узла текущей дистанции&amp;nbsp;&lt;/span&gt;" style="whiteSpace=wrap;html=1;fillColor=#ffffff;strokeColor=#000000;spacingTop=0;spacing=0;" vertex="1" parent="1">
          <mxGeometry x="1372.5" y="925.5" width="245" height="60" as="geometry" />
        </mxCell>
        <mxCell id="ZQdvw8Mw5SdcorRhIYN5-57" value="Нет" style="edgeStyle=orthogonalEdgeStyle;rounded=0;orthogonalLoop=1;jettySize=auto;html=1;exitX=0;exitY=0.5;exitDx=0;exitDy=0;entryX=0.523;entryY=-0.012;entryDx=0;entryDy=0;fontSize=12;entryPerimeter=0;" edge="1" parent="1" source="ZQdvw8Mw5SdcorRhIYN5-51" target="ZQdvw8Mw5SdcorRhIYN5-54">
          <mxGeometry relative="1" as="geometry" />
        </mxCell>
        <mxCell id="ZQdvw8Mw5SdcorRhIYN5-58" style="edgeStyle=orthogonalEdgeStyle;rounded=0;orthogonalLoop=1;jettySize=auto;html=1;exitX=1;exitY=0.5;exitDx=0;exitDy=0;entryX=0.5;entryY=0;entryDx=0;entryDy=0;fontSize=12;" edge="1" parent="1" source="ZQdvw8Mw5SdcorRhIYN5-51" target="ZQdvw8Mw5SdcorRhIYN5-53">
          <mxGeometry relative="1" as="geometry" />
        </mxCell>
        <mxCell id="ZQdvw8Mw5SdcorRhIYN5-59" value="Да" style="edgeLabel;html=1;align=center;verticalAlign=middle;resizable=0;points=[];fontSize=12;" vertex="1" connectable="0" parent="ZQdvw8Mw5SdcorRhIYN5-58">
          <mxGeometry x="-0.5694" y="3" relative="1" as="geometry">
            <mxPoint as="offset" />
          </mxGeometry>
        </mxCell>
        <mxCell id="ZQdvw8Mw5SdcorRhIYN5-51" value="" style="rhombus;fontSize=12;strokeWidth=2;" vertex="1" parent="1">
          <mxGeometry x="1480" y="1016" width="30" height="30" as="geometry" />
        </mxCell>
        <mxCell id="ZQdvw8Mw5SdcorRhIYN5-53" value="&lt;span style=&quot;&quot;&gt;Значение пробега равно сумме длин перебранных дистанций&lt;/span&gt;" style="whiteSpace=wrap;html=1;fillColor=#ffffff;strokeColor=#000000;spacingTop=0;spacing=0;" vertex="1" parent="1">
          <mxGeometry x="1520" y="1100" width="245" height="60" as="geometry" />
        </mxCell>
        <mxCell id="ZQdvw8Mw5SdcorRhIYN5-55" style="edgeStyle=orthogonalEdgeStyle;rounded=0;orthogonalLoop=1;jettySize=auto;html=1;exitX=0;exitY=0.5;exitDx=0;exitDy=0;fontSize=12;entryX=0;entryY=0.5;entryDx=0;entryDy=0;" edge="1" parent="1" source="ZQdvw8Mw5SdcorRhIYN5-54" target="ZQdvw8Mw5SdcorRhIYN5-49">
          <mxGeometry relative="1" as="geometry">
            <mxPoint x="1342.0869565217395" y="960" as="targetPoint" />
          </mxGeometry>
        </mxCell>
        <mxCell id="ZQdvw8Mw5SdcorRhIYN5-54" value="Взять предыдущую дистанцию: конечный узел = начальному узлу текущей дистанции" style="whiteSpace=wrap;html=1;fillColor=#ffffff;strokeColor=#000000;spacingTop=0;spacing=0;" vertex="1" parent="1">
          <mxGeometry x="1210" y="1100" width="255" height="60" as="geometry" />
        </mxCell>
        <mxCell id="ZQdvw8Mw5SdcorRhIYN5-62" style="edgeStyle=orthogonalEdgeStyle;rounded=0;orthogonalLoop=1;jettySize=auto;html=1;exitX=0.5;exitY=1;exitDx=0;exitDy=0;fontSize=12;entryX=0.5;entryY=0;entryDx=0;entryDy=0;" edge="1" parent="1" source="ZQdvw8Mw5SdcorRhIYN5-60" target="ZQdvw8Mw5SdcorRhIYN5-61">
          <mxGeometry relative="1" as="geometry">
            <mxPoint x="730.37037037037" y="1040" as="targetPoint" />
          </mxGeometry>
        </mxCell>
        <mxCell id="ZQdvw8Mw5SdcorRhIYN5-60" value="НЗ формируется наперед?" style="whiteSpace=wrap;html=1;rounded=1;arcSize=10;fillColor=#dae8fc;gradientColor=#7ea6e0;strokeColor=#6c8ebf;" vertex="1" parent="1">
          <mxGeometry x="790" y="1090" width="120" height="60" as="geometry" />
        </mxCell>
        <mxCell id="ZQdvw8Mw5SdcorRhIYN5-64" value="Да" style="edgeStyle=orthogonalEdgeStyle;rounded=0;orthogonalLoop=1;jettySize=auto;html=1;fontSize=12;" edge="1" parent="1" source="ZQdvw8Mw5SdcorRhIYN5-61" target="ZQdvw8Mw5SdcorRhIYN5-63">
          <mxGeometry relative="1" as="geometry" />
        </mxCell>
        <mxCell id="ZQdvw8Mw5SdcorRhIYN5-67" style="edgeStyle=orthogonalEdgeStyle;rounded=0;orthogonalLoop=1;jettySize=auto;html=1;exitX=0;exitY=0.5;exitDx=0;exitDy=0;entryX=0.5;entryY=0;entryDx=0;entryDy=0;fontSize=12;" edge="1" parent="1" source="ZQdvw8Mw5SdcorRhIYN5-61" target="ZQdvw8Mw5SdcorRhIYN5-66">
          <mxGeometry relative="1" as="geometry" />
        </mxCell>
        <mxCell id="ZQdvw8Mw5SdcorRhIYN5-68" value="Нет" style="edgeLabel;html=1;align=center;verticalAlign=middle;resizable=0;points=[];fontSize=12;" vertex="1" connectable="0" parent="ZQdvw8Mw5SdcorRhIYN5-67">
          <mxGeometry x="0.0126" y="4" relative="1" as="geometry">
            <mxPoint as="offset" />
          </mxGeometry>
        </mxCell>
        <mxCell id="ZQdvw8Mw5SdcorRhIYN5-61" value="" style="rhombus;fontSize=12;strokeWidth=2;" vertex="1" parent="1">
          <mxGeometry x="920" y="1200" width="30" height="30" as="geometry" />
        </mxCell>
        <mxCell id="ZQdvw8Mw5SdcorRhIYN5-73" style="edgeStyle=orthogonalEdgeStyle;rounded=0;orthogonalLoop=1;jettySize=auto;html=1;exitX=0.5;exitY=1;exitDx=0;exitDy=0;entryX=1;entryY=0.5;entryDx=0;entryDy=0;fontSize=12;" edge="1" parent="1" source="ZQdvw8Mw5SdcorRhIYN5-63" target="Z_x_-_7z4lIZp34NYtSl-37">
          <mxGeometry relative="1" as="geometry" />
        </mxCell>
        <mxCell id="ZQdvw8Mw5SdcorRhIYN5-63" value="Найти и активировать запланированное НЗ" style="whiteSpace=wrap;html=1;strokeWidth=2;" vertex="1" parent="1">
          <mxGeometry x="970" y="1260" width="190" height="80" as="geometry" />
        </mxCell>
        <mxCell id="ZQdvw8Mw5SdcorRhIYN5-66" value="Сформировать наряд-задание в активном состоянии" style="whiteSpace=wrap;html=1;strokeWidth=2;" vertex="1" parent="1">
          <mxGeometry x="720" y="1260" width="190" height="80" as="geometry" />
        </mxCell>
        <mxCell id="ZQdvw8Mw5SdcorRhIYN5-71" style="edgeStyle=orthogonalEdgeStyle;rounded=0;orthogonalLoop=1;jettySize=auto;html=1;exitX=0.5;exitY=1;exitDx=0;exitDy=0;entryX=0.5;entryY=0;entryDx=0;entryDy=0;fontSize=12;" edge="1" parent="1" source="ZQdvw8Mw5SdcorRhIYN5-69" target="ZQdvw8Mw5SdcorRhIYN5-70">
          <mxGeometry relative="1" as="geometry" />
        </mxCell>
        <mxCell id="ZQdvw8Mw5SdcorRhIYN5-69" value="Условие по показателю выполнилось?" style="whiteSpace=wrap;html=1;rounded=1;arcSize=10;fillColor=#dae8fc;gradientColor=#7ea6e0;strokeColor=#6c8ebf;" vertex="1" parent="1">
          <mxGeometry x="660" y="970.5" width="120" height="60" as="geometry" />
        </mxCell>
        <mxCell id="ZQdvw8Mw5SdcorRhIYN5-72" style="edgeStyle=orthogonalEdgeStyle;rounded=0;orthogonalLoop=1;jettySize=auto;html=1;exitX=1;exitY=0.5;exitDx=0;exitDy=0;entryX=0.5;entryY=0;entryDx=0;entryDy=0;fontSize=12;" edge="1" parent="1" source="ZQdvw8Mw5SdcorRhIYN5-70" target="ZQdvw8Mw5SdcorRhIYN5-60">
          <mxGeometry relative="1" as="geometry" />
        </mxCell>
        <mxCell id="ZQdvw8Mw5SdcorRhIYN5-70" value="" style="rhombus;fontSize=12;strokeWidth=2;" vertex="1" parent="1">
          <mxGeometry x="705" y="1050" width="30" height="30" as="geometry" />
        </mxCell>
      </root>
    </mxGraphModel>
  </diagram>
</mxfile>
